<?xml version="1.0" encoding="UTF-8" standalone="no"?>
<!-- Created with Inkscape (http://www.inkscape.org/) -->

<svg
   width="10in"
   height="10in"
   viewBox="0 0 254 254.00001"
   version="1.1"
   id="svg8444"
   inkscape:version="1.1.1 (c3084ef, 2021-09-22)"
   sodipodi:docname="catcow.svg"
   xmlns:inkscape="http://www.inkscape.org/namespaces/inkscape"
   xmlns:sodipodi="http://sodipodi.sourceforge.net/DTD/sodipodi-0.dtd"
   xmlns="http://www.w3.org/2000/svg"
   xmlns:svg="http://www.w3.org/2000/svg">
  <sodipodi:namedview
     id="namedview8446"
     pagecolor="#ffffff"
     bordercolor="#666666"
     borderopacity="1.0"
     inkscape:pageshadow="2"
     inkscape:pageopacity="0.0"
     inkscape:pagecheckerboard="0"
     inkscape:document-units="mm"
     showgrid="false"
     units="in"
     inkscape:zoom="0.4211454"
     inkscape:cx="455.89955"
     inkscape:cy="503.38909"
     inkscape:window-width="1919"
     inkscape:window-height="1026"
     inkscape:window-x="0"
     inkscape:window-y="23"
     inkscape:window-maximized="0"
     inkscape:current-layer="g10762" />
  <defs
     id="defs8441">
    <inkscape:path-effect
       effect="taper_stroke"
       id="path-effect10609"
       is_visible="true"
       lpeversion="1"
       stroke_width="0.4"
       attach_start="0.5"
       end_offset="0.5"
       start_smoothing="0.5"
       end_smoothing="0.5"
       jointype="extrapolated"
       start_shape="center"
       end_shape="center"
       miter_limit="100" />
    <inkscape:path-effect
       effect="taper_stroke"
       id="path-effect10581"
       is_visible="true"
       lpeversion="1"
       stroke_width="0.4"
       attach_start="0.5"
       end_offset="0.5"
       start_smoothing="0.5"
       end_smoothing="0.5"
       jointype="extrapolated"
       start_shape="center"
       end_shape="center"
       miter_limit="100" />
    <inkscape:path-effect
       effect="taper_stroke"
       id="path-effect10273"
       is_visible="true"
       lpeversion="1"
       stroke_width="0.4"
       attach_start="0.5"
       end_offset="0.5"
       start_smoothing="0.5"
       end_smoothing="0.5"
       jointype="extrapolated"
       start_shape="center"
       end_shape="center"
       miter_limit="100" />
    <inkscape:path-effect
       effect="taper_stroke"
       id="path-effect10271"
       is_visible="true"
       lpeversion="1"
       stroke_width="0.4"
       attach_start="0.5"
       end_offset="0.5"
       start_smoothing="0.5"
       end_smoothing="0.5"
       jointype="extrapolated"
       start_shape="center"
       end_shape="center"
       miter_limit="100" />
    <inkscape:path-effect
       effect="taper_stroke"
       id="path-effect8055"
       is_visible="true"
       lpeversion="1"
       stroke_width="0.4"
       attach_start="0.5"
       end_offset="0.5"
       start_smoothing="0.5"
       end_smoothing="0.5"
       jointype="extrapolated"
       start_shape="center"
       end_shape="center"
       miter_limit="100" />
    <inkscape:path-effect
       effect="taper_stroke"
       id="path-effect6747"
       is_visible="true"
       lpeversion="1"
       stroke_width="0.4"
       attach_start="0.5"
       end_offset="0.5"
       start_smoothing="0.5"
       end_smoothing="0.5"
       jointype="extrapolated"
       start_shape="center"
       end_shape="center"
       miter_limit="100" />
    <inkscape:path-effect
       effect="taper_stroke"
       id="path-effect6745"
       is_visible="true"
       lpeversion="1"
       stroke_width="0.4"
       attach_start="0.5"
       end_offset="0.5"
       start_smoothing="0.5"
       end_smoothing="0.5"
       jointype="extrapolated"
       start_shape="center"
       end_shape="center"
       miter_limit="100" />
    <inkscape:path-effect
       effect="taper_stroke"
       id="path-effect5623"
       is_visible="true"
       lpeversion="1"
       stroke_width="0.4"
       attach_start="0.5"
       end_offset="0.5"
       start_smoothing="0.5"
       end_smoothing="0.5"
       jointype="extrapolated"
       start_shape="center"
       end_shape="center"
       miter_limit="100" />
    <inkscape:path-effect
       effect="taper_stroke"
       id="path-effect5621"
       is_visible="true"
       lpeversion="1"
       stroke_width="0.4"
       attach_start="0.5"
       end_offset="0.5"
       start_smoothing="0.5"
       end_smoothing="0.5"
       jointype="extrapolated"
       start_shape="center"
       end_shape="center"
       miter_limit="100" />
    <inkscape:path-effect
       effect="taper_stroke"
       id="path-effect1966"
       is_visible="true"
       lpeversion="1"
       stroke_width="0.4"
       attach_start="0.5"
       end_offset="0.5"
       start_smoothing="0.5"
       end_smoothing="0.5"
       jointype="extrapolated"
       start_shape="center"
       end_shape="center"
       miter_limit="100" />
    <inkscape:path-effect
       effect="taper_stroke"
       id="path-effect1150"
       is_visible="true"
       lpeversion="1"
       stroke_width="0.4"
       attach_start="1.0203832"
       end_offset="1.1339661"
       start_smoothing="0.5"
       end_smoothing="0.5"
       jointype="extrapolated"
       start_shape="center"
       end_shape="center"
       miter_limit="100" />
    <inkscape:path-effect
       effect="taper_stroke"
       id="path-effect940"
       is_visible="true"
       lpeversion="1"
       stroke_width="0.4"
       attach_start="1.103757"
       end_offset="0.67394343"
       start_smoothing="0.5"
       end_smoothing="0.5"
       jointype="extrapolated"
       start_shape="center"
       end_shape="center"
       miter_limit="100" />
    <inkscape:path-effect
       effect="taper_stroke"
       id="path-effect938"
       is_visible="true"
       lpeversion="1"
       stroke_width="0.4"
       attach_start="0.5"
       end_offset="0.5"
       start_smoothing="0.5"
       end_smoothing="0.5"
       jointype="extrapolated"
       start_shape="center"
       end_shape="center"
       miter_limit="100" />
    <clipPath
       clipPathUnits="userSpaceOnUse"
       id="clipPath8885">
      <rect
         style="fill:none;stroke:#000000;stroke-width:0.196845"
         id="rect8887"
         width="77.920372"
         height="60.356228"
         x="90.613533"
         y="393.34274" />
    </clipPath>
    <clipPath
       clipPathUnits="userSpaceOnUse"
       id="clipPath9488">
      <rect
         style="fill:none;stroke:#000000;stroke-width:0.195118"
         id="rect9490"
         width="81.786369"
         height="51.341553"
         x="92.384422"
         y="222.01706" />
    </clipPath>
    <clipPath
       clipPathUnits="userSpaceOnUse"
       id="clipPath8885-6">
      <rect
         style="fill:none;stroke:#000000;stroke-width:0.196845"
         id="rect8887-3"
         width="77.920372"
         height="60.356228"
         x="90.613533"
         y="393.34274" />
    </clipPath>
  </defs>
  <g
     inkscape:label="cat"
     inkscape:groupmode="layer"
     id="layer1"
     style="display:inline" />
  <g
     inkscape:groupmode="layer"
     id="layer2"
     inkscape:label="cow"
     style="display:inline">
    <g
       id="g10762">
      <g
         id="g36596"
         transform="matrix(1.3454553,0,0,1.3454553,-36.695783,-38.640386)">
        <path
           style="display:inline;fill:#0059fd;fill-opacity:1;fill-rule:nonzero;stroke:none;stroke-width:0.264583px;stroke-linecap:butt;stroke-linejoin:miter;stroke-opacity:1"
           d="m 93.010148,148.76498 c 0.826349,6.39318 3.156307,12.31985 3.156307,12.31985 0,0 -1.943169,-6.05525 -2.759608,-12.37113 -0.514016,-3.97656 -0.695717,-8.01393 -0.95813,-12.68811 -0.493914,-8.79772 -6.675303,-19.5796 0.900545,-28.67062 3.760659,-4.51279 8.520128,-6.47857 13.292008,-9.659883 21.59721,-13.71963 47.01031,-25.42396 62.09931,-6.971256 l -0.006,-0.0081 c 0.32331,0.439427 0.22699,0.311127 0.48608,0.680731 0.29838,0.425643 0.70633,1.02031 1.14484,1.696689 0.21923,0.338149 0.44593,0.696477 0.67033,1.064196 0.74974,1.228562 1.46383,2.542813 1.7929,3.564412 1.77406,5.507491 1.36569,11.492001 1.64153,17.305171 0.20604,4.34206 -0.66775,6.07562 6.9e-4,13.11578 a 72.568208,72.568208 0 0 0 0.001,0.0151 18.15445,18.15445 0 0 1 0.004,0.0146 c 0.23943,0.95773 0.42463,2.03055 0.65708,3.08112 0.34164,1.55356 1.1293,2.87235 1.1293,2.87235 0,0 -0.40669,-1.4672 -0.73875,-2.95877 -0.23108,-1.04438 -0.41751,-2.12346 -0.65957,-3.09172 l 0.005,0.0296 c -0.66566,-7.01104 0.20877,-8.71124 6.7e-4,-13.09694 -0.2751,-5.79733 0.12941,-11.8526 -1.66035,-17.408853 -0.0861,-0.267172 -0.19684,-0.552 -0.32565,-0.847045 -0.11599,-0.265674 -0.24712,-0.540822 -0.38893,-0.820571 -0.2552,-0.50339 -0.54596,-1.023529 -0.84735,-1.532926 -0.24116,-0.407588 -0.48946,-0.808886 -0.73228,-1.189926 -0.48557,-0.761983 -0.94995,-1.444128 -1.29288,-1.935706 -0.28303,-0.40572 -0.20206,-0.300154 -0.5656,-0.794264 a 212.82498,212.82498 0 0 0 -0.003,-0.0041 32.010024,32.010024 0 0 0 -0.003,-0.004 c -15.30446,-18.71619 -40.98912,-6.856384 -62.62715,6.889237 -4.75614,3.170764 -9.585609,5.184424 -13.381116,9.739034 -7.714978,9.25798 -1.478629,20.29234 -0.992629,28.94912 0.262307,4.67226 0.44463,8.72372 0.960803,12.71697 z"
           id="path6784"
           sodipodi:nodetypes="csscsaacc"
           inkscape:path-effect="#path-effect10271"
           inkscape:original-d="m 96.166455,161.08483 c -3.189375,-8.87037 -3.392704,-15.70159 -3.917424,-25.04803 -0.489957,-8.72725 -6.698826,-19.63537 0.946587,-28.80987 3.778083,-4.5337 8.572552,-6.52342 13.338412,-9.70066 21.61577,-13.731422 47.16465,-25.51349 62.36138,-6.929043 0,0 3.28754,4.468288 4.12342,7.063233 1.78191,5.53187 1.37547,11.55176 1.65094,17.35701 0.20707,4.36388 -0.66704,6.08076 1e-5,13.10636 0.48149,1.92599 0.74326,4.3038 1.59235,6.00198" />
        <path
           style="display:inline;fill:#000000;fill-rule:nonzero;stroke:none;stroke-width:0.264583px;stroke-linecap:butt;stroke-linejoin:miter;stroke-opacity:1"
           d="m 160.62792,108.11271 c -0.98842,-0.59935 -1.73518,-1.15013 -2.35125,-1.7754 -0.56304,-0.57144 -0.85162,-1.04347 -0.85162,-1.04347 0,0 0.19735,0.51713 0.70204,1.17357 0.53493,0.69579 1.29409,1.38595 2.29401,1.98769 1.04042,0.62846 1.95029,1.21216 2.52921,2.75595 0.61358,1.6362 0.8401,3.31196 1.08084,4.98396 0.18947,1.3255 0.41869,2.41129 0.74607,3.38637 0.30151,0.89802 0.60853,1.44874 0.60853,1.44874 0,0 -0.21554,-0.59234 -0.41631,-1.50213 -0.24385,-1.10502 -0.33374,-1.95141 -0.54237,-3.38999 -0.2405,-1.67029 -0.47352,-3.39085 -1.10222,-5.06739 -0.63481,-1.69282 -1.65008,-2.32555 -2.69693,-2.9579 z"
           id="path7882"
           sodipodi:nodetypes="csc"
           inkscape:path-effect="#path-effect8055"
           inkscape:original-d="m 157.42505,105.29384 c 1.86225,3.41413 4.4988,2.61038 5.71253,5.84699 1.24228,3.31274 0.91907,6.79263 2.24817,9.88929" />
        <path
           style="display:inline;fill:#0059fd;fill-opacity:1;fill-rule:nonzero;stroke:none;stroke-width:0.264583px;stroke-linecap:butt;stroke-linejoin:miter;stroke-opacity:1"
           d="m 157.16951,109.25764 c 0.5306,-0.47759 0.94349,-0.90773 1.25012,-1.37896 0.2796,-0.42971 0.37049,-0.75575 0.37049,-0.75575 0,0 -0.18298,0.28416 -0.52595,0.631 -0.34425,0.34815 -0.87179,0.75391 -1.36409,1.20807 -0.77232,0.70384 -1.57502,1.32348 -1.96138,1.51666 -1.10715,0.55357 -2.62026,0.56937 -3.91597,0.38427 -3.42313,-0.48902 -6.38154,-3.26947 -9.21633,-4.68687 -1.72034,-0.86017 -9.30818,2.17196 -10.92022,2.81677 -1.85782,0.74314 -3.87924,1.43786 -5.77757,2.14973 -5.98692,2.2451 -10.09725,6.30256 -11.15132,11.57686 -1.19492,5.97903 -0.43217,10.51739 -0.008,16.87281 0.94076,14.07571 -1.81283,27.94034 -1.81283,27.94034 0,0 3.15721,-13.79095 2.21194,-27.96698 -0.42539,-6.37212 -1.18162,-10.85017 0.001,-16.76777 1.02067,-5.10712 5.01024,-9.07224 10.89952,-11.28072 1.89469,-0.71051 3.92133,-1.40713 5.78569,-2.15287 1.61112,-0.64445 9.08518,-3.58419 10.59278,-2.83039 2.79049,1.39524 5.82688,4.22339 9.33865,4.72507 1.33075,0.1901 2.94894,0.17876 4.15141,-0.42247 0.43845,-0.21923 1.27189,-0.86792 2.05193,-1.5788 z"
           id="path8092"
           sodipodi:nodetypes="cssssssc"
           inkscape:path-effect="#path-effect10273"
           inkscape:original-d="m 158.79012,107.12293 c -0.4897,0.99796 -2.93717,3.12221 -3.76198,3.53462 -1.15481,0.5774 -2.72046,0.59097 -4.03369,0.40337 -3.46745,-0.49535 -6.46485,-3.29965 -9.27749,-4.70597 -1.61436,-0.80718 -9.14492,2.17895 -10.7565,2.82358 -1.86109,0.74444 -3.88512,1.44011 -5.78163,2.1513 -5.9381,2.22679 -9.98805,6.23808 -11.02542,11.42879 -2.37756,11.89663 3.03796,18.03282 -2.01684,44.77395" />
        <path
           style="display:inline;fill:#0059fd;fill-opacity:1;fill-rule:nonzero;stroke:none;stroke-width:0.264583px;stroke-linecap:butt;stroke-linejoin:miter;stroke-opacity:1"
           d="m 161.67359,105.88993 c 1.42663,-0.45314 2.73936,-0.58122 3.8723,-0.47892 1.06818,0.0964 1.75074,0.37075 1.75074,0.37075 0,0 -0.63789,-0.36746 -1.72353,-0.56813 -1.13646,-0.21005 -2.5446,-0.17996 -4.02135,0.2953 -1.95726,0.62588 -3.7279,1.88509 -4.61961,3.71624 -0.97999,2.13563 -0.41883,3.27937 1.1198,4.81218 l -0.0176,-0.02 c 0.14029,0.18306 0.60702,1.92235 1.07497,2.53292 0.45816,0.59782 1.32336,0.90834 1.84707,1.26289 0.28973,0.19613 0.30956,2.02389 1.57811,2.19165 1.36504,0.18053 2.34473,-0.1723 3.42275,0.11385 2.62875,0.69778 1.10574,3.78651 7.66679,4.01842 4.18149,0.14778 8.74712,-3.32768 10.45166,-7.12123 1.1274,-2.38505 0.83867,-5.22832 0.5415,-7.5115 l -0.16049,0.2222 c 0.0522,-0.01 0.50303,0.29358 1.14438,0.48751 0.67518,0.20416 1.54435,0.25603 2.48181,-0.38866 1.39043,-0.95619 1.5995,-2.91755 1.18256,-4.3366 -0.56407,-1.91977 -2.48379,-4.44735 -4.53765,-4.05109 -1.83665,0.35437 -3.7188,1.95863 -2.44002,4.99278 l 0.36705,-0.15894 c -2.95665,-6.649388 -6.35642,-5.63404 -8.58231,-7.827429 -0.35099,-0.345857 -0.52276,-0.497618 -0.69796,-0.728625 -0.41145,-0.538994 -0.88491,-1.113341 -0.88491,-1.113341 0,0 0.10998,0.749941 0.5662,1.35505 0.19403,0.255834 0.3886,0.429593 0.73591,0.771832 2.37843,2.343693 5.58438,1.15338 8.49757,7.705033 l 0.36705,-0.15894 c -1.17338,-2.78405 0.54945,-4.13639 2.1472,-4.44466 1.75488,-0.33858 3.54866,1.96922 4.07809,3.77109 0.38384,1.30637 0.19307,3.05629 -1.02544,3.89426 -0.80852,0.55601 -1.55537,0.51195 -2.13937,0.33536 -0.61934,-0.18727 -1.08298,-0.54613 -1.33584,-0.49741 a 0.22601627,0.22601627 0 0 0 -0.17035,0.14666 101.66105,101.66105 0 0 1 0.01,0.0755 c 0.29629,2.27636 0.57306,5.00517 -0.50809,7.29244 -1.65221,3.67699 -6.067,7.03055 -10.07429,6.88891 -6.43791,-0.22755 -4.6567,-3.22976 -7.57829,-4.00528 -1.14492,-0.30391 -2.15487,0.0505 -3.47293,-0.12377 -0.4667,-0.0617 -0.6955,-0.4387 -0.85657,-0.89333 -0.16705,-0.47152 -0.25144,-1.03109 -0.54975,-1.23302 -0.56142,-0.38009 -1.35068,-0.64895 -1.75382,-1.17497 -0.43993,-0.57401 -0.86254,-2.25574 -1.07497,-2.53292 a 0.266056,0.266056 0 0 0 -0.0113,-0.0138 18.262682,18.262682 0 0 1 -0.006,-0.006 c -1.47031,-1.46475 -1.92913,-2.42121 -1.04051,-4.35782 0.83171,-1.70783 2.50156,-2.9056 4.37986,-3.50622 z"
           id="path2003-1"
           sodipodi:nodetypes="csasssccccsaacsc"
           inkscape:path-effect="#path-effect10609"
           inkscape:original-d="m 167.29663,105.78176 c -3.30173,-1.38715 -8.46126,-0.008 -10.18271,3.52682 -0.93529,2.0382 -0.4253,3.0883 1.07917,4.58708 0.17636,0.23012 0.62103,1.94063 1.07497,2.53292 0.43065,0.56192 1.25788,0.85161 1.80044,1.21893 0.44437,0.3008 0.32049,2.00404 1.49222,2.159 1.34155,0.17742 2.33637,-0.17622 3.44784,0.11881 2.77517,0.73665 1.12306,3.78212 7.62254,4.01185 4.09439,0.14471 8.5846,-3.2698 10.26378,-7.00682 1.10347,-2.33441 0.82072,-5.12045 0.52399,-7.40022 0.31867,-0.0614 1.80472,1.33115 3.5507,0.13045 1.30447,-0.89708 1.50439,-2.75272 1.104,-4.11543 -0.54675,-1.86082 -2.4035,-4.27851 -4.30787,-3.91109 -1.7172,0.33132 -3.51969,1.80962 -2.29361,4.71872 -2.93512,-6.600977 -6.23849,-5.49839 -8.53994,-7.766231 -0.6983,-0.688096 -0.73269,-0.651039 -1.44249,-1.984424" />
        <path
           style="fill:#000000;fill-rule:nonzero;stroke:none;stroke-width:0.264583px;stroke-linecap:butt;stroke-linejoin:miter;stroke-opacity:1"
           d="m 165.38576,121.03013 c -0.72356,-1.98077 -1.54454,-3.79939 -2.39876,-5.43305 0,0 0,0 0,0 -0.70299,-1.33213 -0.83636,-2.9241 -0.89854,-3.85213 -0.068,-1.01443 -0.0787,-1.61235 -0.0787,-1.61235 0,0 -0.0312,0.59679 -0.0199,1.61619 0.0104,0.9358 0.0642,2.54233 0.74351,3.97511 0,0 0,0 0,0 0.79583,1.66702 1.55367,3.46433 2.27668,5.44348 5.76696,15.78683 3.83291,32.85596 7.86145,48.97009 0.8243,3.29718 -0.0345,8.65594 5.29258,8.6559 1.55105,0.0319 4.76861,0.0713 7.62881,0.3853 1.46667,0.16097 4.83078,0.68188 6.37054,0.83301 1.1713,0.11495 1.93932,-0.72706 1.07043,-1.47983 l -0.1432,0.35079 c 3.02604,0.1855 3.17515,0.47217 3.76574,-0.0555 0.43617,-0.38968 0.31277,-1.52686 0.3257,-1.57243 0.013,-0.0459 0.58637,-0.34066 0.70228,-0.71795 0.0993,-0.32314 -0.23721,-0.59305 -0.22108,-0.73455 0.0142,-0.12528 0.45354,-0.35695 0.3743,-0.72207 -0.21777,-1.00345 -1.4083,-1.42323 -2.32813,-1.72038 -0.93685,-0.30267 -2.03916,-0.41889 -3.23072,-0.49456 -3.73032,-0.23687 -8.75994,-0.85677 -11.01653,-1.80351 -2.24223,-0.94071 -1.99402,-1.47702 -2.67055,-6.52789 -0.41539,-3.10127 1.4155,-13.0341 -1.67766,-25.43399 -2.4493,-9.8188 -0.12352,-26.61287 -0.0766,-30.37294 0.0376,-3.01715 -1.16272,-6.98869 -3.37893,-10.399168 -2.19228,-3.373671 -6.62383,-6.625826 -10.21751,-5.26978 -2.91475,1.099859 -4.36544,2.033604 -6.18579,3.854258 -3.06813,2.795497 -5.45319,5.5649 -8.33879,8.16144 -2.14488,1.93001 -4.17143,4.19628 -6.61288,5.47207 -7.58789,3.96508 -13.22615,0.6231 -18.88817,-2.39469 -5.06235,-2.69818 -12.85204,-6.03915 -18.46089,-3.19583 -5.675521,2.87711 -7.835483,6.51631 -8.448935,17.0236 -0.53489,9.16169 -1.506477,20.11077 -1.331136,28.0455 -0.04293,4.83219 0.339182,8.42921 0.875708,11.08405 0.466118,2.31659 1.110624,4.05638 1.955737,5.45984 0.300367,0.49884 0.555077,0.8277 0.774797,1.07078 0.09737,0.10773 0.171896,0.18016 0.230373,0.23311 0.05259,0.0476 0.08464,0.0718 0.08932,0.0753 0,0 10e-7,0 10e-7,0 0,0 0,0 0,0 0,0 0,0 0,0 3.61e-4,2.3e-4 3.1e-4,2e-4 3.1e-4,2e-4 0,0 4.3e-5,4e-5 -2.61e-4,-2.6e-4 0,0 0,0 0,0 0,0 0,0 0,0 0,0 0,0 0,0 -0.0043,-0.004 -0.03336,-0.0312 -0.08088,-0.0837 -0.05295,-0.0586 -0.118832,-0.13665 -0.20518,-0.25232 -0.196458,-0.26317 -0.413102,-0.60233 -0.672158,-1.11825 -0.749601,-1.49288 -1.224814,-3.123 -1.699987,-5.4639 -0.530141,-2.62325 -0.910529,-6.19121 -0.867839,-11.00746 -0.174932,-7.92055 0.795343,-18.85305 1.330513,-28.01954 0.607736,-10.40941 2.722832,-13.89813 8.230477,-16.69014 5.42347,-2.74934 13.0516,0.50563 18.09189,3.19205 5.64824,3.01045 11.48058,6.46219 19.26157,2.39621 2.48727,-1.29973 4.56164,-3.60944 6.69518,-5.52925 2.8974,-2.60716 5.28298,-5.377161 8.34735,-8.169522 1.78753,-1.787536 3.17912,-2.685635 6.05089,-3.769274 3.34772,-1.263232 7.60553,1.827431 9.74089,5.113492 2.18527,3.362864 3.35095,7.241864 3.31437,10.176224 -0.046,3.68414 -2.38101,20.57525 0.0884,30.47475 3.0826,12.35757 1.23655,22.15942 1.6693,25.39027 0.66843,4.99045 0.4296,5.80206 2.91226,6.84365 2.32506,0.97546 7.40498,1.5963 11.14594,1.83385 1.18388,0.0752 2.24039,0.18759 3.1331,0.47599 0.90973,0.29388 1.89628,0.66934 2.06019,1.42459 0.0251,0.11558 -0.33966,0.22958 -0.38083,0.592 -0.0389,0.34151 0.26709,0.56161 0.23615,0.6623 -0.0794,0.25839 -0.62425,0.44275 -0.70472,0.72621 -0.0816,0.28757 0.10045,1.10832 -0.2074,1.38336 -0.41857,0.37396 -0.3934,0.14341 -3.47476,-0.0455 l -0.58983,-0.0362 0.44663,0.38694 c 0.51419,0.44547 0.0695,0.86176 -0.76944,0.77943 -1.52339,-0.14953 -4.88582,-0.6701 -6.36597,-0.83255 -2.87456,-0.31553 -6.11546,-0.35572 -7.66833,-0.38764 -4.94334,0 -4.02778,-4.8295 -4.90864,-8.35296 -4.0168,-16.06719 -2.08598,-33.16639 -7.87379,-49.01032 z"
           id="path9654"
           sodipodi:nodetypes="ccscsscssssasssssssscassascc"
           inkscape:path-effect="#path-effect940"
           inkscape:original-d="m 162.00974,110.1326 c 0.0168,1.70344 0.11957,4.06614 0.85044,5.52789 8.64235,17.2847 5.71697,36.47501 10.20534,54.42847 0.85258,3.41032 -0.0346,8.50445 5.10267,8.50445 1.5499,0.0319 4.77913,0.0717 7.64651,0.38645 1.47341,0.16171 4.83668,0.68245 6.36825,0.83278 1.00674,0.0988 1.61321,-0.52901 0.91994,-1.12963 3.0537,0.1872 3.11567,0.44581 3.62025,-0.005 0.3733,-0.33351 0.21997,-1.31376 0.26655,-1.4779 0.0466,-0.16414 0.60577,-0.40397 0.7035,-0.72207 0.0664,-0.2161 -0.25572,-0.46068 -0.22862,-0.69838 0.027,-0.2377 0.43115,-0.41021 0.37757,-0.65708 -0.19084,-0.87935 -1.27938,-1.27697 -2.19416,-1.57249 -0.91478,-0.29553 -1.99419,-0.40985 -3.18191,-0.48527 -3.73564,-0.23721 -8.79041,-0.85758 -11.08124,-1.81868 -2.36244,-0.99115 -2.11892,-1.66511 -2.7914,-6.68577 -0.42407,-3.16606 1.4144,-13.0334 -1.67348,-25.41213 -2.45937,-9.85915 -0.12898,-26.70174 -0.0825,-30.42384 0.0371,-2.97576 -1.14591,-6.90103 -3.34665,-10.287701 -2.16382,-3.329866 -6.5085,-6.501275 -9.9792,-5.191636 -2.89326,1.091749 -4.3144,2.007671 -6.1217,3.814974 -3.06289,2.790721 -5.44821,5.560423 -8.33971,8.162273 -2.13921,1.92491 -4.18967,4.2129 -6.65403,5.50066 -7.68444,4.01553 -13.41974,0.61867 -19.07487,-2.39545 -5.05132,-2.6923 -12.76023,-5.99027 -18.27639,-3.19394 -5.591582,2.83456 -7.729111,6.39852 -8.339705,16.85687 -0.53503,9.16409 -1.505961,20.10488 -1.330804,28.03562 -0.131356,14.78615 3.726253,17.92151 3.726253,17.92151" />
        <path
           style="fill:#000000;fill-rule:nonzero;stroke:none;stroke-width:0.264583px;stroke-linecap:butt;stroke-linejoin:miter;stroke-opacity:1"
           d="m 117.19137,140.79144 c 0.47664,-4.37477 0.57869,-8.23231 0.45901,-11.57105 -0.11316,-3.15711 -0.3965,-5.24395 -0.3965,-5.24395 0,0 0.18367,2.09799 0.19663,5.24795 0.0139,3.38321 -0.17703,7.11562 -0.65679,11.52375 -0.60252,5.53314 -1.61251,11.01978 -2.70639,16.48918 -1.15251,5.76253 -2.1572,13.86794 -7.5503,16.43045 -9.954005,4.72961 -24.17404,-5.61537 -32.212991,-8.29503 a 20.255987,20.255987 0 0 0 -0.0049,-0.002 10.009909,10.009909 0 0 1 -0.0049,-0.001 C 69.58928,164.06061 59.28834,157.46861 55.658986,161.83892 a 3.9887495,3.9887495 0 0 0 -0.0068,0.008 17.9485,17.9485 0 0 0 -0.0058,0.009 c -1.397578,2.09636 -5.432009,9.10439 -1.486417,11.07718 a 3.615938,3.615938 0 0 0 0.05706,0.0279 2.4635212,2.4635212 0 0 1 0.05875,-0.009 c 0.673913,-0.0896 1.196702,0.12475 1.196702,0.12475 0.119805,0.0514 0.221384,0.11737 0.298893,0.20102 0.247345,0.26692 0.333165,0.82443 -0.439459,2.02554 l 0.0082,-0.0118 c -1.697027,2.2627 -6.536965,1.18883 -8.17557,-1.39715 -2.522319,-3.98061 -1.061787,-9.65309 -1.061789,-12.39769 0.0283,-6.96592 -0.348023,-10.29036 2.411777,-13.08218 2.843711,-2.8767 7.313073,2.20771 10.933701,2.93184 3.206244,0.64124 10.89715,1.38003 14.183515,1.43973 5.73205,0.10413 12.173981,1.14447 17.254309,4.19267 1.040684,0.62441 1.904986,1.21931 2.717237,1.88928 1.292842,1.06589 2.563105,2.21652 2.563105,2.21652 0,0 -0.970123,-1.42058 -2.308582,-2.52509 -0.831155,-0.68557 -1.712178,-1.29144 -2.765962,-1.92371 -5.162056,-3.09724 -11.683231,-4.1448 -17.452841,-4.24961 -3.261997,-0.0593 -10.937547,-0.79707 -14.112335,-1.43203 -3.383233,-0.67665 -8.212451,-5.94075 -11.296617,-2.8208 -2.899598,2.93324 -2.499079,6.41318 -2.527305,13.36257 0,2.65469 -1.479,8.50481 1.123907,12.6126 1.765955,2.78696 6.941019,3.94629 8.83345,1.42305 a 3.0858413,3.0858413 0 0 0 0.0044,-0.006 8.0112577,8.0112577 0 0 0 0.0039,-0.006 c 1.033983,-1.60742 0.746083,-2.4241 0.04031,-2.77435 0,0 -0.61953,-0.30505 -1.485595,-0.18986 l 0.115809,0.0194 c -3.531829,-1.7659 0.271829,-8.44474 1.640353,-10.49752 l -0.01255,0.0168 c 3.391027,-4.08334 13.397653,2.31889 18.240681,3.66074 l -0.0098,-0.003 c 7.939927,2.64664 22.349706,13.10502 32.511147,8.27685 5.60026,-2.66095 6.62249,-10.97136 7.77088,-16.71331 1.09458,-5.4729 2.10742,-10.97409 2.7118,-16.52432 z"
           id="path19426"
           sodipodi:nodetypes="csaccccscssssc"
           inkscape:path-effect="#path-effect938"
           inkscape:original-d="m 117.25388,123.97644 c 1.07523,11.32443 -0.78197,22.3578 -2.97043,33.3001 -1.15045,5.75224 -2.16391,13.96015 -7.66059,16.57188 -10.057721,4.77889 -24.372628,-5.62279 -32.362067,-8.28594 -4.783792,-1.32544 -14.937392,-7.82304 -18.447945,-3.59578 -1.383297,2.07494 -5.305602,8.91625 -1.563385,10.78735 0,0 3.237289,-0.43055 1.250708,2.65776 -1.794729,2.39297 -6.80223,1.27637 -8.50451,-1.4101 -2.562613,-4.0442 -1.092847,-9.8055 -1.092847,-12.50555 0.02826,-6.95725 -0.360159,-10.35944 2.46954,-13.22197 2.964391,-2.99878 7.613675,2.17602 11.115159,2.87632 3.190516,0.6381 10.873744,1.3764 14.147925,1.43588 5.75083,0.10447 12.232383,1.14842 17.353575,4.22114 2.094468,1.25668 3.490649,2.40154 5.177443,4.2773" />
        <path
           style="fill:#000000;fill-rule:nonzero;stroke:none;stroke-width:0.264583px;stroke-linecap:butt;stroke-linejoin:miter;stroke-opacity:1"
           d="m 130.10575,132.71971 c -0.18709,-0.009 -0.37406,-0.0179 -0.56096,-0.0275 -2.4236,-0.12383 -4.73823,-0.49771 -6.74759,-0.90257 -3.23263,-0.6543 -5.35083,-1.54463 -5.35083,-1.54463 0,0 2.06184,1.02813 5.29531,1.79699 1.99847,0.47691 4.33013,0.91434 6.78201,1.04867 0.18766,0.0103 0.37546,0.0198 0.56335,0.0286 9.02932,0.42283 18.28013,-0.47414 26.94174,-3.05904 4e-5,-1e-5 7e-5,-2e-5 10e-5,-3e-5 5.10775,-1.52671 9.19704,-4.89607 9.19704,-4.89607 0,0 -4.32691,3.02756 -9.31143,4.51277 -3e-5,1e-5 -6e-5,2e-5 -9e-5,3e-5 -8.6127,2.57031 -17.81726,3.46383 -26.80865,3.04278 z"
           id="path977"
           sodipodi:nodetypes="caac"
           inkscape:path-effect="#path-effect1150"
           inkscape:original-d="m 117.44637,130.24501 c 2.19664,1.14502 7.96892,2.42833 12.08787,2.64643 9.18825,0.48652 18.62048,-0.39162 27.43735,-3.02286 3.31597,-0.98959 6.36618,-2.69679 9.25433,-4.70445" />
        <path
           style="fill:#000000;fill-rule:nonzero;stroke:none;stroke-width:0.264583px;stroke-linecap:butt;stroke-linejoin:miter;stroke-opacity:1"
           d="m 48.565585,145.22832 c -0.544687,1.51851 -0.26446,3.036 -0.26446,3.036 0,0 0.143271,-1.51401 0.640962,-2.90093 0.350657,-0.97738 0.922411,-1.83338 1.780623,-2.26248 2.47915,-1.23958 4.816626,0.98742 7.243825,1.47286 l -0.02504,-0.007 c 10.519871,3.56945 21.648769,1.46153 29.324001,5.61871 a 15.975759,15.975759 0 0 1 0.0056,0.003 47.354664,47.354664 0 0 1 0.0058,0.003 c 2.306367,1.06402 4.341904,2.22816 5.801087,3.12652 l -0.0046,-0.003 c 1.148998,0.75103 2.409878,1.3454 2.457577,1.36781 8.71e-4,3.1e-4 7.48e-4,2.7e-4 7.48e-4,2.7e-4 0,0 8.4e-5,1e-4 -5.02e-4,-6.3e-4 -0.03941,-0.0345 -1.083782,-0.94704 -2.238997,-1.70221 l -0.0046,-0.003 c -1.468604,-0.90416 -3.518602,-2.07666 -5.84323,-3.14912 l 0.01147,0.006 c -7.770836,-4.20896 -18.929704,-2.0979 -29.385979,-5.64577 a 32.747457,32.747457 0 0 1 -0.01241,-0.004 4.6221306,4.6221306 0 0 1 -0.01263,-0.003 c -2.289785,-0.45795 -4.834793,-2.77158 -7.501157,-1.4384 -0.980472,0.49024 -1.606594,1.4493 -1.978239,2.48519 z"
           id="path1299"
           sodipodi:nodetypes="csccc"
           inkscape:path-effect="#path-effect1966"
           inkscape:original-d="m 48.301125,148.26432 c -0.06361,-1.71218 0.493458,-4.42296 2.332142,-5.3423 2.573073,-1.28654 5.014231,0.98398 7.372491,1.45563 10.488073,3.55866 21.631956,1.44917 29.35499,5.63224 4.630995,2.13648 8.17107,4.67328 8.17107,4.67328" />
        <path
           style="fill:#000000;fill-rule:nonzero;stroke:none;stroke-width:0.264583px;stroke-linecap:butt;stroke-linejoin:miter;stroke-opacity:1"
           d="m 174.94811,86.572937 c -1.4866,0.175188 -2.79985,0.05276 -3.89301,-0.261926 -1.03067,-0.296694 -1.64904,-0.695136 -1.64904,-0.695136 0,0 0.55688,0.481471 1.58499,0.883802 1.07625,0.421164 2.46467,0.657867 4.00465,0.47042 2.04031,-0.244472 4.01713,-1.146091 5.23903,-2.775371 1.3662,-1.911752 1.03147,-3.140976 -0.18951,-4.937115 l 0.0135,0.023 c -0.10315,-0.206294 -0.23251,-2.00245 -0.57654,-2.69051 -0.33684,-0.673683 -1.12771,-1.142218 -1.5749,-1.589413 -0.24741,-0.24741 0.0788,-2.045905 -1.13516,-2.450557 -1.30628,-0.435422 -2.33501,-0.274232 -3.33945,-0.759094 -2.44935,-1.182346 -0.36969,-3.927306 -6.76848,-5.395841 -4.07809,-0.935929 -9.2186,1.61337 -11.60981,5.016098 -1.55811,2.128796 -1.81231,4.975361 -1.9523,7.27354 l 0.19963,-0.18784 c -0.0531,0 -0.43845,-0.383434 -1.03155,-0.695151 -0.62439,-0.328162 -1.46806,-0.54346 -2.51053,-0.0877 -1.54617,0.675977 -2.1224,2.562404 -1.98135,4.0347 0.19082,1.991798 1.59789,4.836831 3.68962,4.836135 1.87052,-6.22e-4 4.02212,-1.219972 3.34022,-4.441213 l -0.39048,0.08665 c 1.64576,7.08856 5.1762,6.734491 6.94711,9.309263 0.27925,0.405993 0.41922,0.587502 0.54757,0.847476 0.3021,0.607084 0.65839,1.260612 0.65839,1.260612 0,0 0.0338,-0.757213 -0.29972,-1.437686 -0.14214,-0.287913 -0.30035,-0.495334 -0.57666,-0.89708 -1.89228,-2.751213 -5.26548,-2.188679 -6.88705,-9.173047 l -0.39048,0.08665 c 0.62568,2.955721 -1.32182,3.957833 -2.94904,3.958375 -1.78723,5.94e-4 -3.1122,-2.604797 -3.2913,-4.474281 -0.12985,-1.355382 0.38842,-3.037657 1.74341,-3.63005 0.89908,-0.393076 1.62412,-0.208573 2.1642,0.07527 0.57274,0.301019 0.96014,0.741075 1.21764,0.741075 a 0.2260234,0.2260234 0 0 0 0.19503,-0.11178 101.66697,101.66697 0 0 1 0.005,-0.07606 c 0.13957,-2.291301 0.38387,-5.023212 1.87806,-7.064741 2.31779,-3.298169 7.28714,-5.756288 11.19531,-4.859353 6.27871,1.440975 3.96187,4.052151 6.68408,5.366203 1.06678,0.514956 2.12553,0.357906 3.38683,0.778341 0.44662,0.148876 0.60001,0.562316 0.67219,1.039191 0.0749,0.494595 0.0519,1.060015 0.30663,1.314735 0.47941,0.479411 1.20358,0.892692 1.49996,1.485456 0.32343,0.646857 0.42037,2.378161 0.57654,2.690509 a 0.26605469,0.26605469 0 0 0 0.009,0.01568 18.262821,18.262821 0 0 1 0.005,0.0073 c 1.16676,1.716383 1.43641,2.742349 0.19759,4.475956 -1.13964,1.51952 -3.00589,2.379888 -4.9639,2.614496 z"
           id="path2003"
           sodipodi:nodetypes="csasssccccsaacsc"
           inkscape:path-effect="#path-effect5623"
           inkscape:original-d="m 169.40606,85.615875 c 2.97981,1.986539 8.30713,1.607651 10.66595,-1.537434 1.30387,-1.824537 1.00168,-2.952132 -0.19219,-4.708393 -0.12966,-0.259321 -0.24281,-2.023051 -0.57654,-2.69051 -0.31661,-0.633223 -1.07413,-1.074131 -1.53743,-1.537434 -0.37944,-0.379441 0.0643,-2.028472 -1.05699,-2.402241 -1.28379,-0.427929 -2.32753,-0.268809 -3.36314,-0.768718 -2.58578,-1.248199 -0.38753,-3.926267 -6.72628,-5.381022 -3.99313,-0.916432 -9.04806,1.587277 -11.40368,4.939291 -1.52503,2.083597 -1.77428,4.872835 -1.91406,7.167575 -0.32453,0 -1.52041,-1.648435 -3.46196,-0.799601 -1.45058,0.634185 -1.99783,2.418536 -1.86238,3.832375 0.18496,1.930641 1.55098,4.655853 3.49046,4.655208 1.74887,-5.82e-4 3.79842,-1.111313 3.14463,-4.199794 1.63378,7.036951 5.08605,6.578987 6.91708,9.241155 0.55556,0.807739 0.59635,0.77786 1.04117,2.221427" />
        <path
           style="fill:#000000;fill-rule:nonzero;stroke:none;stroke-width:0.264583px;stroke-linecap:butt;stroke-linejoin:miter;stroke-opacity:1"
           d="m 175.32013,93.494905 c 0.37124,-1.671203 0.21811,-3.320172 0.009,-4.570831 -0.2071,-1.238093 -0.43657,-2.034951 -0.43657,-2.034951 0,0 0.1307,0.819284 0.23706,2.060184 0.10793,1.259252 0.16186,2.861645 -0.1997,4.458068 -0.50033,2.257506 -1.91099,4.253085 -1.91099,4.253085 0,0 1.75154,-1.741026 2.3013,-4.165555 z"
           id="path2219"
           sodipodi:nodetypes="cc"
           inkscape:path-effect="#path-effect5621"
           inkscape:original-d="m 174.89246,86.889123 c 1.13686,5.867934 0.10773,8.040333 -1.87363,10.771337" />
        <path
           style="fill:#000000;fill-rule:nonzero;stroke:none;stroke-width:0.264583px;stroke-linecap:butt;stroke-linejoin:miter;stroke-opacity:1"
           d="m 182.21217,159.93385 c -0.88935,0.003 -1.76462,0.10689 -2.41694,0.12093 -0.65057,0.014 -1.09028,-0.0421 -1.09028,-0.0421 0,0 0.41618,0.15381 1.07918,0.2413 0.75664,0.0999 1.46578,0.087 2.43021,0.0799 1.31494,-0.007 2.57569,0.0387 3.39367,0.44201 0.30251,0.14916 0.20068,0.14731 0.20068,0.14731 -0.11164,0.0871 -0.32243,0.15114 -0.45708,0.19668 -0.19497,0.0659 -0.7782,0.41353 0.0129,0.43715 1.01585,0.0304 1.7146,0.0408 2.0351,0.37348 0.0415,0.0431 0.0241,0.10294 -0.0661,0.21595 -0.11552,0.14472 -0.31583,0.2676 -0.31583,0.4059 0,0.51785 0.58479,0.69644 0.5285,0.94912 -0.24277,1.08977 -1.68252,1.31192 -3.55012,1.29831 -1.37323,-0.0116 -2.78873,-0.10813 -3.83417,-0.0353 -1.04784,0.073 -1.71544,0.27928 -1.71544,0.27928 0,0 0.68974,-0.10823 1.71971,-0.08 1.0321,0.0283 2.42081,0.22734 3.82698,0.23597 1.90159,0.0139 3.63058,-0.20679 3.94346,-1.61132 0.11191,-0.50233 -0.51892,-0.7609 -0.51892,-1.0361 0,0 -0.0329,0.11065 -0.0329,0.11065 0.002,-0.002 0.003,-0.003 0.005,-0.005 0.002,-0.002 0.004,-0.004 0.007,-0.006 0.003,-0.003 0.006,-0.005 0.009,-0.008 0.003,-0.003 0.007,-0.006 0.0108,-0.01 0.004,-0.004 0.009,-0.008 0.0132,-0.0122 0.005,-0.005 0.0105,-0.01 0.0161,-0.0148 0.0551,-0.0511 0.13349,-0.12673 0.20053,-0.21071 0.14487,-0.1815 0.28857,-0.48661 0.0416,-0.743 -0.4577,-0.47515 -1.29983,-0.46556 -2.31123,-0.49579 -0.004,-1.2e-4 -0.006,-2.4e-4 -0.008,-3.5e-4 0,0 0.0591,0.36064 0.0591,0.36064 5e-4,-2.3e-4 0.001,-6.5e-4 0.003,-0.001 0.002,-9.9e-4 0.006,-0.002 0.01,-0.004 0.005,-0.002 0.01,-0.004 0.016,-0.006 0.007,-0.002 0.0144,-0.005 0.0228,-0.008 0.0214,-0.007 0.0463,-0.0155 0.0738,-0.0247 0.0923,-0.031 0.21885,-0.0753 0.33157,-0.13144 0.38855,-0.19366 0.5857,-0.58728 -0.10026,-0.92552 -0.88551,-0.43663 -2.25204,-0.49039 -3.57274,-0.48324 z"
           id="path5658"
           sodipodi:nodetypes="csssssc"
           inkscape:path-effect="#path-effect6747"
           inkscape:original-d="m 178.70495,160.01266 c 1.73696,0.38472 5.28802,-0.25616 6.99151,0.58381 1.03045,0.5081 -0.65648,0.75074 -0.32597,0.76061 1.01362,0.0303 1.78406,0.0307 2.17316,0.43463 0.29106,0.30213 -0.32598,0.72295 -0.32598,0.76061 0,0.39177 0.6089,0.61021 0.52371,0.99261 -0.55565,2.4943 -6.33747,0.8856 -9.29494,1.4988" />
        <path
           style="fill:#000000;fill-rule:nonzero;stroke:none;stroke-width:0.264583px;stroke-linecap:butt;stroke-linejoin:miter;stroke-opacity:1"
           d="m 169.54759,165.20508 c 1.15108,0.0328 2.28566,-0.21823 2.28566,-0.21823 0,0 -1.15616,-0.14881 -2.2741,-0.18161 -0.77852,-0.0225 -1.49087,-0.1225 -2.01243,-0.44333 -2.15019,-1.32264 -1.2479,-6.27904 -1.58715,-8.65376 l 0.002,0.0182 c -0.30633,-6.07357 -1.02529,-10.35037 -0.94041,-15.5302 0.0413,-2.52076 -0.10573,-5.9472 -0.0141,-8.90578 0.0478,-1.52015 0.0854,-2.67941 0.28683,-3.90807 0.25658,-1.44415 0.93227,-2.21818 0.93227,-2.21818 0,0 -0.79128,0.53427 -1.1653,2.17088 -0.28789,1.19009 -0.4084,2.459 -0.45361,3.94299 -0.092,2.96996 0.0551,6.40161 0.014,8.9116 -0.0852,5.20011 0.63508,9.49435 0.94085,15.5569 a 109.868,109.868 0 0 1 4.7e-4,0.009 4.7403132,4.7403132 0 0 1 0.001,0.009 c 0.32418,2.26928 -0.61247,7.47019 1.77355,8.9379 0.60154,0.37002 1.41101,0.47936 2.21045,0.50247 z"
           id="path5660"
           sodipodi:nodetypes="cscac"
           inkscape:path-effect="#path-effect6745"
           inkscape:original-d="m 171.83325,164.98685 c -1.34768,-0.0359 -3.26822,0.23626 -4.39132,-0.45459 -2.26851,-1.39542 -1.34866,-6.47401 -1.68035,-8.79583 -0.30605,-6.06806 -1.02568,-10.35358 -0.94063,-15.54355 0.0824,-5.03075 -0.58815,-13.71618 1.40497,-15.02875" />
      </g>
    </g>
  </g>
</svg>
